<svg version="1.1" viewBox="0.0 0.0 242.96325459317586 244.51706036745406" fill="none" stroke="none" stroke-linecap="square" stroke-miterlimit="10" xmlns:xlink="http://www.w3.org/1999/xlink" xmlns="http://www.w3.org/2000/svg"><clipPath id="p.0"><path d="m0 0l242.96326 0l0 244.51706l-242.96326 0l0 -244.51706z" clip-rule="nonzero"/></clipPath><g clip-path="url(#p.0)"><path fill="#000000" fill-opacity="0.0" d="m0 0l242.96326 0l0 244.51706l-242.96326 0z" fill-rule="evenodd"/><path fill="#efefef" d="m62.199474 63.3832l0 -60.88189l59.2441 60.88189z" fill-rule="evenodd"/><path fill="#efefef" d="m180.68767 63.3832l0 -60.88189l-59.244095 60.88189z" fill-rule="evenodd"/><path fill="#efefef" d="m180.68767 182.50131l0 60.881897l-59.244095 -60.881897z" fill-rule="evenodd"/><path fill="#efefef" d="m62.199474 182.50131l0 60.881897l59.2441 -60.881897z" fill-rule="evenodd"/><path fill="#efefef" d="m180.68767 183.38321l60.88188 0l-60.88188 -59.244102z" fill-rule="evenodd"/><path fill="#efefef" d="m62.884514 63.32021l-60.88189 0l60.88189 59.2441z" fill-rule="evenodd"/><path fill="#efefef" d="m62.884514 183.38321l-60.88189 0l60.88189 -59.244102z" fill-rule="evenodd"/><path fill="#cfe2f3" d="m121.44357 62.501312l0 60.88189l-59.2441 -60.88189z" fill-rule="evenodd"/><path fill="#ffffff" d="m121.44357 62.501312l0 60.88189l59.244095 -60.88189z" fill-rule="evenodd"/><path fill="#fff2cc" d="m121.44357 184.2021l0 -60.88189l59.244095 60.88189z" fill-rule="evenodd"/><path fill="#fce5cd" d="m121.44357 184.2021l0 -60.88189l-59.2441 60.88189z" fill-rule="evenodd"/><path fill="#a2c4c9" d="m180.68767 123.32021l0 60.88189l-59.244095 -60.88189z" fill-rule="evenodd"/><path fill="#ffffff" d="m62.199474 123.32021l0 60.88189l59.2441 -60.88189z" fill-rule="evenodd"/><path fill="#f4cccc" d="m62.199474 123.3832l0 -60.88189l59.2441 60.88189z" fill-rule="evenodd"/><path fill="#ea9999" d="m180.68767 123.3832l0 -60.88189l-59.244095 60.88189z" fill-rule="evenodd"/><path fill="#efefef" d="m180.68767 62.501312l0 60.88189l59.244095 -60.88189z" fill-rule="evenodd"/></g></svg>